<?xml version="1.0" encoding="utf-8"?>
<!-- Generator: Adobe Illustrator 20.0.0, SVG Export Plug-In . SVG Version: 6.00 Build 0)  -->
<svg version="1.1" id="Layer_1" xmlns="http://www.w3.org/2000/svg" xmlns:xlink="http://www.w3.org/1999/xlink" x="0px" y="0px"
	 viewBox="0 0 128 128" style="enable-background:new 0 0 128 128;" xml:space="preserve">
<style type="text/css">
	.st0{fill:#EBEDED;}
	.st1{fill-rule:evenodd;clip-rule:evenodd;fill:#EBEDED;}
	.st2{fill:#00AAFF;}
	.st3{fill:#4F5D66;}
	.st4{fill:#00AAFF;stroke:#4F5D66;stroke-width:3;stroke-linecap:round;stroke-linejoin:round;stroke-miterlimit:10;}
	.st5{fill:none;stroke:#EBEDED;stroke-width:3;stroke-linecap:round;stroke-linejoin:round;stroke-miterlimit:10;}
	.st6{fill:#FFFFFF;}
	.st7{fill:none;stroke:#4F5D66;stroke-width:3;stroke-linecap:round;stroke-linejoin:round;stroke-miterlimit:10;}
	.st8{fill:#FFFFFF;stroke:#4F5D66;stroke-width:3;stroke-linecap:round;stroke-linejoin:round;stroke-miterlimit:10;}
	.st9{fill:none;stroke:#4F5D66;stroke-width:3;stroke-linecap:round;stroke-miterlimit:10;}
	.st10{fill:#00AAFF;stroke:#4F5D66;stroke-width:3;stroke-miterlimit:10;}
	.st11{fill:none;stroke:#4F5D66;stroke-width:3;stroke-miterlimit:10;}
	.st12{fill:#FFFFFF;stroke:#4F5D66;stroke-width:3;stroke-miterlimit:10;}
	.st13{fill-rule:evenodd;clip-rule:evenodd;fill:#00AAFF;stroke:#4F5D66;stroke-width:3;stroke-miterlimit:10;}
	.st14{fill:#EBEDED;stroke:#4F5D66;stroke-width:3;stroke-linecap:round;stroke-linejoin:round;stroke-miterlimit:10;}
	.st15{clip-path:url(#SVGID_2_);}
	.st16{fill:#EBEDED;stroke:#EBEDED;stroke-width:3;stroke-linecap:round;stroke-linejoin:round;stroke-miterlimit:10;}
	
		.st17{fill-rule:evenodd;clip-rule:evenodd;fill:#00AAFF;stroke:#4F5D66;stroke-width:3;stroke-linecap:round;stroke-linejoin:round;stroke-miterlimit:10;}
	.st18{fill:#E2E9F2;}
	.st19{fill:none;stroke:#4F5D66;stroke-width:3;stroke-linejoin:round;stroke-miterlimit:10;}
	.st20{fill:#FFFFFF;stroke:#4F5D66;stroke-width:3;stroke-linejoin:round;stroke-miterlimit:10;}
	.st21{fill:#FFFFFF;stroke:#FFFFFF;stroke-linecap:round;stroke-linejoin:round;stroke-miterlimit:10;}
</style>
<g>
	<path class="st0" d="M101.3,33.8c-3.4,1.1-11.2-1.6-11.2-1.6c-13.6-5.1-13.6-5.1-18.8,0.1l-3.8,3.8l-3.9-3.9c-5.2-5.2-5.2-5.2-19,0
		c0,0-7.9,2.9-11.3,1.7L6.8,60.6c0,0,6.5,5.7,7.9,9.6c1.4,4,9.4,12.4,13.1,14.4l0,0c-0.4,1.7,0,3.6,1.4,5l1,1c2.1,2.1,5.4,2.1,7.5,0
		c-2.1,2.1-2.1,5.4,0,7.5l1,1c2.1,2.1,5.4,2.1,7.5,0c-2.1,2.1-2.1,5.4,0,7.5l1,1c2.1,2.1,5.4,2.1,7.5,0l7.4-7.4
		c-2.1,2.1-2.1,5.4,0,7.5l1,1c2.1,2.1,5.4,2.1,7.5,0l3.6-3.6c0.6-0.6,1-1.2,1.2-1.9l1.6,1.6c2.1,2.1,5.4,2.1,7.5,0l1-1
		c2.1-2.1,2.1-5.4,0-7.5l-8.6-8.6h0l8.6,8.6L90,101c2.1,2.1,5.4,2.1,7.5,0l1-1c2.1-2.1,2.1-5.4,0-7.5l-1.6-1.6l0.4,0.1l3.7,3.7
		c2.1,2.1,5.5,2.4,7.5,0.4l1-1c2.1-2.1,2-5.8-0.1-7.8l-1.1-1.1c3.7-2,10.2-11,11.6-15c1.4-4,7.9-9.6,7.9-9.6L101.3,33.8z"/>
	<g>
		<path class="st9" d="M66.8,76.5L85.3,95c2.1,2.1,5.4,2.1,7.5,0l1-1c2.1-2.1,2.1-5.4,0-7.5L75.3,68"/>
		<path class="st7" d="M72.1,81.8l8.6,8.6c2.1,2.1,2.1,5.4,0,7.5l-1,1c-2.1,2.1-5.4,2.1-7.5,0l-6.1-6.1l-43-14.1
			c-3.7-2-11.7-10.4-13.1-14.4s-7.9-9.6-7.9-9.6l26.5-26.5c3.4,1.1,11.3-1.7,11.3-1.7c13.7-5.3,13.7-5.3,19,0L78.5,46
			c2.1,2.1,2.4,5.8,0.3,7.9l22.4,22.6l3.6,3.6c2.1,2.1,2.1,5.8,0.1,7.8l-1.2,1.2c-2.1,2.1-5.5,1.7-7.5-0.4l-3.7-3.7"/>
	</g>
	<g>
		<path class="st10" d="M36.6,81.2L33,84.7c-2.1,2.1-5.4,2.1-7.5,0l-1-1c-2.1-2.1-2.1-5.4,0-7.5l3.6-3.6c2.1-2.1,5.4-2.1,7.5,0l1,1
			C38.6,75.7,38.6,79.1,36.6,81.2z"/>
		<path class="st10" d="M69.4,99.3l-3.6,3.6c-2.1,2.1-5.4,2.1-7.5,0l-1-1c-2.1-2.1-2.1-5.4,0-7.5l3.6-3.6c2.1-2.1,5.4-2.1,7.5,0l1,1
			C71.5,93.9,71.5,97.2,69.4,99.3z"/>
		<path class="st10" d="M50,84.7l-8.5,8.5c-2.1,2.1-5.4,2.1-7.5,0l-1-1c-2.1-2.1-2.1-5.4,0-7.5l8.5-8.5c2.1-2.1,5.4-2.1,7.5,0l1,1
			C52.1,79.3,52.1,82.7,50,84.7z"/>
		<path class="st10" d="M60.7,91L50,101.7c-2.1,2.1-5.4,2.1-7.5,0l-1-1c-2.1-2.1-2.1-5.4,0-7.5l10.7-10.7c2.1-2.1,5.4-2.1,7.5,0l1,1
			C62.8,85.6,62.8,89,60.7,91z"/>
		<path class="st4" d="M85.2,26.3c-13.6-5.1-13.6-5.1-18.8,0.1L46.7,46.1c-2.1,2.1-2.6,5.5-0.5,7.6l1.8,1.8c2.1,2.1,5.6,1.8,7.7-0.3
			L68,43l35.3,35.7C107,76.7,113.5,68,115,64c1.4-4,7.9-9.6,7.9-9.6L96.4,27.9C93,29,85.2,26.3,85.2,26.3z"/>
	</g>
</g>
</svg>
